<svg xmlns="http://www.w3.org/2000/svg" viewBox="0 0 534 415.01"><defs><style>.cls-1,.cls-4{fill:#801ab2;}.cls-2{fill:#471968;}.cls-2,.cls-4{stroke:#131316;stroke-miterlimit:10;stroke-width:20px;}.cls-3{fill:#131316;}</style></defs><g id="Голова"><rect class="cls-1" y="151" width="534" height="106" rx="23.05"/></g><path class="cls-1" d="M638,373H168a90.88,90.88,0,0,1,9-42c8.38-16.93,23.48-32.92,59.12-49.22C298.07,253.46,365.94,249.88,403,250c37.06-.12,104.93,3.46,166.88,31.78,35.64,16.3,50.74,32.29,59.12,49.22A90.88,90.88,0,0,1,638,373Z" transform="translate(-136 -250)"/><path class="cls-1" d="M168,542H638a90.88,90.88,0,0,1-9,42c-8.38,16.93-23.48,32.92-59.12,49.22C507.93,661.54,440.06,665.12,403,665c-37.06.12-104.93-3.46-166.88-31.78C200.48,616.92,185.38,600.93,177,584A90.88,90.88,0,0,1,168,542Z" transform="translate(-136 -250)"/><g id="Очки"><path class="cls-2" d="M596.5,440.69v26.76a23.11,23.11,0,0,1-23,23.05H472.05A23.11,23.11,0,0,1,449,467.45V440.69a23.11,23.11,0,0,1,23.05-23.05h101.4a23,23,0,0,1,23,23.05Z" transform="translate(-136 -250)"/><rect class="cls-3" x="596" y="436" width="74" height="22" transform="translate(1130 644) rotate(-180)"/><path class="cls-2" d="M357,440.69v26.76A23.11,23.11,0,0,1,334,490.5H232.55a23.11,23.11,0,0,1-23.05-23.05V440.69a23,23,0,0,1,23.05-23.05H334A23.11,23.11,0,0,1,357,440.69Z" transform="translate(-136 -250)"/><rect class="cls-3" y="186" width="74" height="22"/><rect class="cls-3" x="221" y="186" width="92" height="22"/></g><rect class="cls-4" x="219" y="315" width="96.57" height="78" rx="23.05"/></svg>